<svg id="レイヤー_1" data-name="レイヤー 1" xmlns="http://www.w3.org/2000/svg" viewBox="0 0 100 100"><defs><style>.cls-1{fill:#ff8c21;}</style></defs><path class="cls-1" d="M54.12,71.59l-2.36-7.31a.22.22,0,0,0-.22-.17H34.38a.22.22,0,0,0-.22.17l-2.31,7.31a.63.63,0,0,1-.66.44H29.27c-.41,0-.55-.2-.44-.6L41,34a.65.65,0,0,1,.66-.44h2.47a.65.65,0,0,1,.66.44L57.1,71.43l0,.22c0,.26-.16.38-.49.38H54.79A.65.65,0,0,1,54.12,71.59Zm-19-10a.24.24,0,0,0,.19.08h15.4a.24.24,0,0,0,.19-.08.14.14,0,0,0,0-.19L43.12,37.49a.17.17,0,0,0-.16-.11.2.2,0,0,0-.17.11L35,61.42A.14.14,0,0,0,35.07,61.61Z"/><path class="cls-1" d="M64.25,38a2.93,2.93,0,0,1,0-4,2.68,2.68,0,0,1,2-.77,2.71,2.71,0,0,1,2,.77,2.93,2.93,0,0,1,0,4,2.71,2.71,0,0,1-2,.77A2.68,2.68,0,0,1,64.25,38Zm.38,33.44V44.81a.48.48,0,0,1,.55-.55H67a.49.49,0,0,1,.55.55V71.43A.49.49,0,0,1,67,72H65.18A.48.48,0,0,1,64.63,71.43Z"/></svg>