<svg id="レイヤー_1" data-name="レイヤー 1" xmlns="http://www.w3.org/2000/svg" viewBox="0 0 100 100"><defs><style>.cls-1{fill:#36bef0;}</style></defs><path class="cls-1" d="M49.89,36.31a10.36,10.36,0,0,1,2.86,7.62,10.09,10.09,0,0,1-2.89,7.53,10.32,10.32,0,0,1-7.61,2.86H30.81a.2.2,0,0,0-.23.22V71.48A.48.48,0,0,1,30,72H28.22a.48.48,0,0,1-.55-.55V34a.49.49,0,0,1,.55-.55H42.36A10.16,10.16,0,0,1,49.89,36.31ZM47.72,49.68A7.83,7.83,0,0,0,49.83,44a7.87,7.87,0,0,0-2.11-5.74,7.43,7.43,0,0,0-5.58-2.18H30.81a.2.2,0,0,0-.23.22V51.63c0,.15.08.22.23.22H42.14A7.43,7.43,0,0,0,47.72,49.68Z"/><path class="cls-1" d="M59.49,71.35a8.51,8.51,0,0,1-3.55-2.62,5.85,5.85,0,0,1-1.26-3.63v-.71a.48.48,0,0,1,.55-.55h1.7a.48.48,0,0,1,.55.55V65a4.23,4.23,0,0,0,2,3.5,8.66,8.66,0,0,0,5.17,1.45,8,8,0,0,0,5-1.48,4.51,4.51,0,0,0,1.93-3.69,3.41,3.41,0,0,0-1-2.53,6.65,6.65,0,0,0-2.33-1.51c-.9-.35-2.25-.8-4-1.35a44.53,44.53,0,0,1-5-1.76,8.74,8.74,0,0,1-3.16-2.33,5.71,5.71,0,0,1-1.29-3.83,6.38,6.38,0,0,1,2.67-5.36,11.35,11.35,0,0,1,7-2,12.88,12.88,0,0,1,5.14,1,8.35,8.35,0,0,1,3.47,2.61,6.11,6.11,0,0,1,1.24,3.74v.16a.49.49,0,0,1-.55.55H72.11a.48.48,0,0,1-.55-.55v-.16a4.17,4.17,0,0,0-2-3.49,8.6,8.6,0,0,0-5.15-1.41,8.52,8.52,0,0,0-4.94,1.3,4,4,0,0,0-1.87,3.49,3.4,3.4,0,0,0,1.73,3.13,24.45,24.45,0,0,0,5.41,2.15,43.75,43.75,0,0,1,5.09,1.76,9.47,9.47,0,0,1,3.28,2.34,5.65,5.65,0,0,1,1.37,3.93,6.77,6.77,0,0,1-2.67,5.58,11.14,11.14,0,0,1-7.12,2.12A13.43,13.43,0,0,1,59.49,71.35Z"/></svg>