<svg id="レイヤー_1" data-name="レイヤー 1" xmlns="http://www.w3.org/2000/svg" viewBox="0 0 100 100"><defs><style>.cls-1{fill:#000333;}.cls-2,.cls-3{fill:#e5a228;}.cls-3{stroke:#e5a228;stroke-miterlimit:10;stroke-width:0.5px;}</style></defs><path class="cls-1" d="M42.62,25.34a2.92,2.92,0,0,1-1.22-1.11A3.14,3.14,0,0,1,41,22.57v-.88a.17.17,0,0,1,.17-.17h1.63a.16.16,0,0,1,.11.05.13.13,0,0,1,0,.12v.88a1.49,1.49,0,0,0,.41,1.08,1.54,1.54,0,0,0,1.12.41,1.58,1.58,0,0,0,1.12-.41A1.4,1.4,0,0,0,46,22.57V16.05a.21.21,0,0,1,0-.12.16.16,0,0,1,.12,0H47.8a.15.15,0,0,1,.17.16v6.52a3.14,3.14,0,0,1-.44,1.66,3,3,0,0,1-1.24,1.11,4.41,4.41,0,0,1-3.67,0Z"/><path class="cls-1" d="M52.1,25.39a2.92,2.92,0,0,1-1.28-1,2.67,2.67,0,0,1-.46-1.54v-.3a.17.17,0,0,1,0-.12.16.16,0,0,1,.12-.05h1.59a.15.15,0,0,1,.12.05.17.17,0,0,1,0,.12v.2a1.12,1.12,0,0,0,.51.94,2.25,2.25,0,0,0,1.39.39,1.62,1.62,0,0,0,1.1-.32,1,1,0,0,0,.36-.77.76.76,0,0,0-.22-.56,2,2,0,0,0-.6-.41c-.26-.11-.66-.27-1.22-.48A11.88,11.88,0,0,1,52,20.87,3.2,3.2,0,0,1,50.94,20a2.32,2.32,0,0,1-.44-1.43,2.5,2.5,0,0,1,.44-1.46,2.65,2.65,0,0,1,1.19-1,4.43,4.43,0,0,1,1.77-.34,4.56,4.56,0,0,1,1.89.38,3.06,3.06,0,0,1,1.29,1.05,2.7,2.7,0,0,1,.47,1.57V19a.16.16,0,0,1,0,.11.13.13,0,0,1-.12.05h-1.6a.13.13,0,0,1-.12-.05.16.16,0,0,1,0-.11v-.12a1.25,1.25,0,0,0-.48-1,2,2,0,0,0-1.31-.41,1.66,1.66,0,0,0-1,.28.9.9,0,0,0-.36.76.87.87,0,0,0,.21.59,1.78,1.78,0,0,0,.64.42q.42.19,1.32.51a16.27,16.27,0,0,1,1.55.64,3.14,3.14,0,0,1,1,.83,2.12,2.12,0,0,1,.46,1.43,2.48,2.48,0,0,1-1,2.06,4.07,4.07,0,0,1-2.61.76A5.1,5.1,0,0,1,52.1,25.39Z"/><path class="cls-2" d="M70.82,31.33,67,75.83,50,80.75,33,75.83l-3.81-44.5H70.82m2.18-2H27l4.12,48L50,82.83l18.88-5.46,4.12-48Z"/><path class="cls-3" d="M42.75,68.39A6.81,6.81,0,0,1,40,62.71V61.29a.38.38,0,0,1,.43-.43h1.33a.38.38,0,0,1,.43.43v1.29a5.11,5.11,0,0,0,2.19,4.29,9.84,9.84,0,0,0,6,1.63A8.67,8.67,0,0,0,55.84,67a4.91,4.91,0,0,0,1.88-4.1,4.65,4.65,0,0,0-.83-2.77,8.41,8.41,0,0,0-2.58-2.21,42.94,42.94,0,0,0-4.91-2.36,54.34,54.34,0,0,1-5-2.36,8.23,8.23,0,0,1-2.73-2.38,6.21,6.21,0,0,1-1-3.71A6.5,6.5,0,0,1,43,41.7a10.59,10.59,0,0,1,6.71-1.91,11.38,11.38,0,0,1,7.34,2.14,7,7,0,0,1,2.66,5.76v1a.38.38,0,0,1-.43.43H57.9a.38.38,0,0,1-.43-.43v-.86a5.31,5.31,0,0,0-2.06-4.35,9.08,9.08,0,0,0-5.8-1.65,8.13,8.13,0,0,0-5,1.35A4.6,4.6,0,0,0,42.83,47a4.43,4.43,0,0,0,.82,2.79A6.73,6.73,0,0,0,46,51.7q1.51.79,4.7,2.08a37.73,37.73,0,0,1,5.13,2.47A10,10,0,0,1,58.88,59,6.43,6.43,0,0,1,60,62.84a6.86,6.86,0,0,1-2.58,5.58c-1.71,1.4-4.12,2.1-7.21,2.1A11.88,11.88,0,0,1,42.75,68.39Z"/></svg>