<svg id="レイヤー_1" data-name="レイヤー 1" xmlns="http://www.w3.org/2000/svg" viewBox="0 0 100 100"><defs><style>.cls-1{fill:#fe3ac1;}</style></defs><path class="cls-1" d="M23,71.84a.5.5,0,0,1,.08-.47L34.85,53a.29.29,0,0,0,0-.33L23.08,34.19a.7.7,0,0,1-.11-.33c0-.22.14-.33.44-.33h2a.79.79,0,0,1,.66.39L36.5,50.31a.19.19,0,0,0,.16,0,.22.22,0,0,0,.17,0L47.22,33.92a.81.81,0,0,1,.66-.39h2c.22,0,.36.07.42.2a.52.52,0,0,1-.09.46L38.48,52.67a.47.47,0,0,0,0,.33L50.19,71.37a.77.77,0,0,1,.11.33c0,.22-.14.33-.44.33h-2a.8.8,0,0,1-.66-.38L36.83,55.31a.18.18,0,0,0-.17-.11.17.17,0,0,0-.16.11L26.1,71.65a.78.78,0,0,1-.66.38h-2C23.19,72,23.05,72,23,71.84Z"/><path class="cls-1" d="M72.08,33.53H73.9a.49.49,0,0,1,.55.55v37.4a.49.49,0,0,1-.55.55H72.08a.49.49,0,0,1-.55-.55V68.79c0-.11,0-.17-.08-.19s-.12,0-.19.08a7.84,7.84,0,0,1-3.08,2.8,9.38,9.38,0,0,1-4.35,1,10.08,10.08,0,0,1-6.32-2A9.75,9.75,0,0,1,54,65.16a13,13,0,0,1-.5-2.83c-.07-1-.11-2.41-.11-4.1s0-3,.11-4.07a16.23,16.23,0,0,1,.44-2.86,9.42,9.42,0,0,1,3.44-5.42,10.29,10.29,0,0,1,6.46-2,9.38,9.38,0,0,1,4.35,1,7.87,7.87,0,0,1,3.08,2.81c0,.11.09.16.16.14s.11-.09.11-.2V34.08A.49.49,0,0,1,72.08,33.53Zm-.74,28.82c.09-.88.14-2.25.14-4.12A38.73,38.73,0,0,0,71.31,54a11.46,11.46,0,0,0-.55-2.45,6.85,6.85,0,0,0-2.34-3.66,6.56,6.56,0,0,0-4.26-1.4,7.22,7.22,0,0,0-4.45,1.4,6.89,6.89,0,0,0-2.53,3.6,8.43,8.43,0,0,0-.69,2.4,33.78,33.78,0,0,0-.19,4.31,37.11,37.11,0,0,0,.16,4.16A12.13,12.13,0,0,0,57,64.72a6.35,6.35,0,0,0,2.48,3.74,7.54,7.54,0,0,0,4.62,1.43,6.55,6.55,0,0,0,4.31-1.43,7.29,7.29,0,0,0,2.4-3.74A10.09,10.09,0,0,0,71.34,62.35Z"/></svg>