<svg id="レイヤー_1" data-name="レイヤー 1" xmlns="http://www.w3.org/2000/svg" viewBox="0 0 100 100"><defs><style>.cls-1{fill:#000333;}.cls-2,.cls-3{fill:#e44d26;}.cls-3{stroke:#e44d26;stroke-miterlimit:10;stroke-width:0.5px;}</style></defs><path class="cls-1" d="M37.11,16.2a.13.13,0,0,1,.12-.05h1.63a.15.15,0,0,1,.16.17v9.51a.15.15,0,0,1-.16.17H37.23a.13.13,0,0,1-.12-.05.17.17,0,0,1,0-.12V22c0-.05,0-.07-.07-.07H33.92c-.05,0-.07,0-.07.07v3.88a.17.17,0,0,1-.05.12.13.13,0,0,1-.12.05H32.05a.15.15,0,0,1-.12-.05.17.17,0,0,1-.05-.12V16.32a.17.17,0,0,1,.05-.12.15.15,0,0,1,.12-.05h1.63a.13.13,0,0,1,.12.05.17.17,0,0,1,.05.12V20.1s0,.07.07.07H37s.07,0,.07-.07V16.32A.17.17,0,0,1,37.11,16.2Z"/><path class="cls-1" d="M48.51,16.2a.17.17,0,0,1,.05.12v1.37a.17.17,0,0,1-.05.12.13.13,0,0,1-.12.05H45.9a.06.06,0,0,0-.07.07v7.9a.17.17,0,0,1,0,.12.13.13,0,0,1-.12.05H44a.17.17,0,0,1-.17-.17v-7.9a.06.06,0,0,0-.07-.07H41.38a.13.13,0,0,1-.12-.05.17.17,0,0,1,0-.12V16.32a.17.17,0,0,1,0-.12.13.13,0,0,1,.12-.05h7A.13.13,0,0,1,48.51,16.2Z"/><path class="cls-1" d="M57.31,16.15h1.63a.13.13,0,0,1,.12.05.17.17,0,0,1,0,.12v9.51a.17.17,0,0,1,0,.12.13.13,0,0,1-.12.05H57.31A.13.13,0,0,1,57.2,26a.13.13,0,0,1-.05-.12V19.62s0-.05,0-.05a.07.07,0,0,0-.06,0L55.59,22a.23.23,0,0,1-.2.11h-.82a.21.21,0,0,1-.19-.11L52.9,19.61s0,0,0,0,0,0,0,.07v6.19a.17.17,0,0,1,0,.12.13.13,0,0,1-.12.05H51a.13.13,0,0,1-.11-.05.13.13,0,0,1,0-.12V16.32a.13.13,0,0,1,0-.12.13.13,0,0,1,.11-.05h1.63a.22.22,0,0,1,.2.11l2.08,3.28q0,.09.09,0l2.1-3.28A.21.21,0,0,1,57.31,16.15Z"/><path class="cls-1" d="M61.9,26a.17.17,0,0,1,0-.12V16.32a.17.17,0,0,1,0-.12.13.13,0,0,1,.12-.05h1.63a.15.15,0,0,1,.12.05.17.17,0,0,1,0,.12v7.91a.06.06,0,0,0,.07.07h4.55a.13.13,0,0,1,.11.05.13.13,0,0,1,0,.12v1.36a.13.13,0,0,1,0,.12.13.13,0,0,1-.11.05H62A.13.13,0,0,1,61.9,26Z"/><path class="cls-2" d="M70.82,31.74,67,75.79l-17,5-17-5L29.18,31.74H70.82m2.18-2h0Zm0,0H27l4.12,47.59L50,82.85l18.88-5.52L73,29.74Z"/><path class="cls-3" d="M58.72,61.68a17.48,17.48,0,0,1-.3,3.59,8,8,0,0,1-2.88,4.56,8.95,8.95,0,0,1-10.34.09,7.78,7.78,0,0,1-2.87-4.25A8.24,8.24,0,0,1,42,63.85a.39.39,0,0,1,.44-.44h1.49a.39.39,0,0,1,.44.44l.17.93a5.89,5.89,0,0,0,2,3.37,6.37,6.37,0,0,0,7.67-.09,6.14,6.14,0,0,0,2-3.63,12.32,12.32,0,0,0,.22-2.75,21.2,21.2,0,0,0-.22-3.06A4.93,4.93,0,0,0,54.3,55.2,6.41,6.41,0,0,0,50.35,54a7.26,7.26,0,0,0-3.75,1,4.63,4.63,0,0,0-2.12,2.59A.49.49,0,0,1,44,58H42.42a.39.39,0,0,1-.44-.44V40.58a.39.39,0,0,1,.44-.45H57a.39.39,0,0,1,.44.45v1.19a.39.39,0,0,1-.44.45H44.48c-.12,0-.18.06-.18.17l0,11.88c0,.06,0,.1.06.11s.1,0,.16-.06a6.94,6.94,0,0,1,2.63-1.75,9.26,9.26,0,0,1,3.46-.65,8.79,8.79,0,0,1,5.17,1.51,6.55,6.55,0,0,1,2.68,4.3A24.3,24.3,0,0,1,58.72,61.68Z"/></svg>